<mxfile host="app.diagrams.net" agent="Mozilla/5.0 (Windows NT 10.0; Win64; x64) AppleWebKit/537.36 (KHTML, like Gecko) Chrome/128.0.0.0 Safari/537.36" version="24.7.7">
  <diagram name="Página-1" id="uNOIHyh6FrEf39FfQNL3">
    <mxGraphModel dx="1509" dy="785" grid="1" gridSize="10" guides="1" tooltips="1" connect="1" arrows="1" fold="1" page="1" pageScale="1" pageWidth="827" pageHeight="1169" math="0" shadow="0">
      <root>
        <mxCell id="0" />
        <mxCell id="1" parent="0" />
        <mxCell id="OdcNtF8pi_zYotDbh5m4-12" style="edgeStyle=orthogonalEdgeStyle;rounded=0;orthogonalLoop=1;jettySize=auto;html=1;exitX=0.5;exitY=0.5;exitDx=0;exitDy=0;exitPerimeter=0;entryX=0;entryY=0.5;entryDx=0;entryDy=0;" edge="1" parent="1" source="OdcNtF8pi_zYotDbh5m4-1" target="OdcNtF8pi_zYotDbh5m4-7">
          <mxGeometry relative="1" as="geometry" />
        </mxCell>
        <mxCell id="OdcNtF8pi_zYotDbh5m4-14" style="edgeStyle=orthogonalEdgeStyle;rounded=0;orthogonalLoop=1;jettySize=auto;html=1;exitX=0.5;exitY=0.5;exitDx=0;exitDy=0;exitPerimeter=0;entryX=0;entryY=0.5;entryDx=0;entryDy=0;" edge="1" parent="1" source="OdcNtF8pi_zYotDbh5m4-1" target="OdcNtF8pi_zYotDbh5m4-8">
          <mxGeometry relative="1" as="geometry" />
        </mxCell>
        <mxCell id="OdcNtF8pi_zYotDbh5m4-26" style="edgeStyle=orthogonalEdgeStyle;rounded=0;orthogonalLoop=1;jettySize=auto;html=1;exitX=0.5;exitY=0.5;exitDx=0;exitDy=0;exitPerimeter=0;entryX=0;entryY=0.5;entryDx=0;entryDy=0;" edge="1" parent="1" source="OdcNtF8pi_zYotDbh5m4-1" target="OdcNtF8pi_zYotDbh5m4-22">
          <mxGeometry relative="1" as="geometry" />
        </mxCell>
        <mxCell id="OdcNtF8pi_zYotDbh5m4-1" value="paciente" style="shape=umlActor;verticalLabelPosition=bottom;verticalAlign=top;html=1;outlineConnect=0;fillColor=#f8cecc;strokeColor=#b85450;" vertex="1" parent="1">
          <mxGeometry x="130" y="440" width="40" height="70" as="geometry" />
        </mxCell>
        <mxCell id="OdcNtF8pi_zYotDbh5m4-13" style="edgeStyle=orthogonalEdgeStyle;rounded=0;orthogonalLoop=1;jettySize=auto;html=1;exitX=0.5;exitY=0.5;exitDx=0;exitDy=0;exitPerimeter=0;entryX=1;entryY=0.5;entryDx=0;entryDy=0;" edge="1" parent="1" source="OdcNtF8pi_zYotDbh5m4-2" target="OdcNtF8pi_zYotDbh5m4-7">
          <mxGeometry relative="1" as="geometry" />
        </mxCell>
        <mxCell id="OdcNtF8pi_zYotDbh5m4-15" style="edgeStyle=orthogonalEdgeStyle;rounded=0;orthogonalLoop=1;jettySize=auto;html=1;exitX=0.5;exitY=0.5;exitDx=0;exitDy=0;exitPerimeter=0;entryX=1;entryY=0.5;entryDx=0;entryDy=0;" edge="1" parent="1" source="OdcNtF8pi_zYotDbh5m4-2" target="OdcNtF8pi_zYotDbh5m4-8">
          <mxGeometry relative="1" as="geometry" />
        </mxCell>
        <mxCell id="OdcNtF8pi_zYotDbh5m4-16" style="edgeStyle=orthogonalEdgeStyle;rounded=0;orthogonalLoop=1;jettySize=auto;html=1;exitX=0.5;exitY=0.5;exitDx=0;exitDy=0;exitPerimeter=0;entryX=1;entryY=0.5;entryDx=0;entryDy=0;" edge="1" parent="1" source="OdcNtF8pi_zYotDbh5m4-2" target="OdcNtF8pi_zYotDbh5m4-9">
          <mxGeometry relative="1" as="geometry" />
        </mxCell>
        <mxCell id="OdcNtF8pi_zYotDbh5m4-17" style="edgeStyle=orthogonalEdgeStyle;rounded=0;orthogonalLoop=1;jettySize=auto;html=1;exitX=0.5;exitY=0.5;exitDx=0;exitDy=0;exitPerimeter=0;entryX=1;entryY=0.5;entryDx=0;entryDy=0;" edge="1" parent="1" source="OdcNtF8pi_zYotDbh5m4-2" target="OdcNtF8pi_zYotDbh5m4-10">
          <mxGeometry relative="1" as="geometry" />
        </mxCell>
        <mxCell id="OdcNtF8pi_zYotDbh5m4-2" value="recepcionista" style="shape=umlActor;verticalLabelPosition=bottom;verticalAlign=top;html=1;outlineConnect=0;fillColor=#e5c976;strokeColor=#6e5b21;" vertex="1" parent="1">
          <mxGeometry x="630" y="400" width="40" height="70" as="geometry" />
        </mxCell>
        <mxCell id="OdcNtF8pi_zYotDbh5m4-19" style="edgeStyle=orthogonalEdgeStyle;rounded=0;orthogonalLoop=1;jettySize=auto;html=1;exitX=0.5;exitY=0.5;exitDx=0;exitDy=0;exitPerimeter=0;entryX=1;entryY=0.5;entryDx=0;entryDy=0;" edge="1" parent="1" source="OdcNtF8pi_zYotDbh5m4-3" target="OdcNtF8pi_zYotDbh5m4-18">
          <mxGeometry relative="1" as="geometry" />
        </mxCell>
        <mxCell id="OdcNtF8pi_zYotDbh5m4-23" style="edgeStyle=orthogonalEdgeStyle;rounded=0;orthogonalLoop=1;jettySize=auto;html=1;exitX=0.5;exitY=0.5;exitDx=0;exitDy=0;exitPerimeter=0;entryX=1;entryY=0.5;entryDx=0;entryDy=0;" edge="1" parent="1" source="OdcNtF8pi_zYotDbh5m4-3" target="OdcNtF8pi_zYotDbh5m4-20">
          <mxGeometry relative="1" as="geometry" />
        </mxCell>
        <mxCell id="OdcNtF8pi_zYotDbh5m4-24" style="edgeStyle=orthogonalEdgeStyle;rounded=0;orthogonalLoop=1;jettySize=auto;html=1;exitX=0.5;exitY=0.5;exitDx=0;exitDy=0;exitPerimeter=0;entryX=1;entryY=0.5;entryDx=0;entryDy=0;" edge="1" parent="1" source="OdcNtF8pi_zYotDbh5m4-3" target="OdcNtF8pi_zYotDbh5m4-21">
          <mxGeometry relative="1" as="geometry" />
        </mxCell>
        <mxCell id="OdcNtF8pi_zYotDbh5m4-25" style="edgeStyle=orthogonalEdgeStyle;rounded=0;orthogonalLoop=1;jettySize=auto;html=1;exitX=0.5;exitY=0.5;exitDx=0;exitDy=0;exitPerimeter=0;entryX=1;entryY=0.5;entryDx=0;entryDy=0;" edge="1" parent="1" source="OdcNtF8pi_zYotDbh5m4-3" target="OdcNtF8pi_zYotDbh5m4-22">
          <mxGeometry relative="1" as="geometry" />
        </mxCell>
        <mxCell id="OdcNtF8pi_zYotDbh5m4-3" value="médico" style="shape=umlActor;verticalLabelPosition=bottom;verticalAlign=top;html=1;outlineConnect=0;fillColor=#7aa178;strokeColor=#43652f;" vertex="1" parent="1">
          <mxGeometry x="630" y="550" width="40" height="70" as="geometry" />
        </mxCell>
        <mxCell id="OdcNtF8pi_zYotDbh5m4-28" style="edgeStyle=orthogonalEdgeStyle;rounded=0;orthogonalLoop=1;jettySize=auto;html=1;exitX=0.5;exitY=1;exitDx=0;exitDy=0;entryX=0.5;entryY=0;entryDx=0;entryDy=0;dashed=1;" edge="1" parent="1" source="OdcNtF8pi_zYotDbh5m4-7" target="OdcNtF8pi_zYotDbh5m4-8">
          <mxGeometry relative="1" as="geometry" />
        </mxCell>
        <mxCell id="OdcNtF8pi_zYotDbh5m4-33" value="includ" style="edgeLabel;html=1;align=center;verticalAlign=middle;resizable=0;points=[];" vertex="1" connectable="0" parent="OdcNtF8pi_zYotDbh5m4-28">
          <mxGeometry x="-0.28" relative="1" as="geometry">
            <mxPoint as="offset" />
          </mxGeometry>
        </mxCell>
        <mxCell id="OdcNtF8pi_zYotDbh5m4-7" value="agendarConsulta" style="ellipse;whiteSpace=wrap;html=1;fillColor=#fff2cc;strokeColor=#d6b656;" vertex="1" parent="1">
          <mxGeometry x="350" y="260" width="110" height="50" as="geometry" />
        </mxCell>
        <mxCell id="OdcNtF8pi_zYotDbh5m4-8" value="cancelaConsulta" style="ellipse;whiteSpace=wrap;html=1;fillColor=#fff2cc;strokeColor=#d6b656;" vertex="1" parent="1">
          <mxGeometry x="350" y="360" width="110" height="50" as="geometry" />
        </mxCell>
        <mxCell id="OdcNtF8pi_zYotDbh5m4-29" style="edgeStyle=orthogonalEdgeStyle;rounded=0;orthogonalLoop=1;jettySize=auto;html=1;exitX=0.5;exitY=1;exitDx=0;exitDy=0;entryX=0.5;entryY=0;entryDx=0;entryDy=0;dashed=1;" edge="1" parent="1" source="OdcNtF8pi_zYotDbh5m4-9" target="OdcNtF8pi_zYotDbh5m4-10">
          <mxGeometry relative="1" as="geometry" />
        </mxCell>
        <mxCell id="OdcNtF8pi_zYotDbh5m4-34" value="includ" style="edgeLabel;html=1;align=center;verticalAlign=middle;resizable=0;points=[];" vertex="1" connectable="0" parent="OdcNtF8pi_zYotDbh5m4-29">
          <mxGeometry x="-0.12" y="4" relative="1" as="geometry">
            <mxPoint as="offset" />
          </mxGeometry>
        </mxCell>
        <mxCell id="OdcNtF8pi_zYotDbh5m4-47" style="edgeStyle=orthogonalEdgeStyle;rounded=0;orthogonalLoop=1;jettySize=auto;html=1;exitX=0;exitY=0.5;exitDx=0;exitDy=0;entryX=0;entryY=0;entryDx=0;entryDy=0;dashed=1;" edge="1" parent="1" source="OdcNtF8pi_zYotDbh5m4-9" target="OdcNtF8pi_zYotDbh5m4-22">
          <mxGeometry relative="1" as="geometry">
            <Array as="points">
              <mxPoint x="330" y="445" />
              <mxPoint x="330" y="660" />
              <mxPoint x="280" y="660" />
              <mxPoint x="280" y="778" />
            </Array>
          </mxGeometry>
        </mxCell>
        <mxCell id="OdcNtF8pi_zYotDbh5m4-48" value="includ" style="edgeLabel;html=1;align=center;verticalAlign=middle;resizable=0;points=[];" vertex="1" connectable="0" parent="OdcNtF8pi_zYotDbh5m4-47">
          <mxGeometry x="-0.1033" y="3" relative="1" as="geometry">
            <mxPoint as="offset" />
          </mxGeometry>
        </mxCell>
        <mxCell id="OdcNtF8pi_zYotDbh5m4-9" value="registraPaciente" style="ellipse;whiteSpace=wrap;html=1;fillColor=#fff2cc;strokeColor=#d6b656;" vertex="1" parent="1">
          <mxGeometry x="350" y="420" width="110" height="50" as="geometry" />
        </mxCell>
        <mxCell id="OdcNtF8pi_zYotDbh5m4-10" value="atualizaDados&lt;div&gt;paciente&lt;/div&gt;" style="ellipse;whiteSpace=wrap;html=1;fillColor=#fff2cc;strokeColor=#d6b656;" vertex="1" parent="1">
          <mxGeometry x="350" y="520" width="110" height="50" as="geometry" />
        </mxCell>
        <mxCell id="OdcNtF8pi_zYotDbh5m4-18" value="consultarAgenda" style="ellipse;whiteSpace=wrap;html=1;fillColor=#fff2cc;strokeColor=#d6b656;" vertex="1" parent="1">
          <mxGeometry x="350" y="590" width="110" height="50" as="geometry" />
        </mxCell>
        <mxCell id="OdcNtF8pi_zYotDbh5m4-43" style="edgeStyle=orthogonalEdgeStyle;rounded=0;orthogonalLoop=1;jettySize=auto;html=1;exitX=0;exitY=0.5;exitDx=0;exitDy=0;shape=link;" edge="1" parent="1" source="OdcNtF8pi_zYotDbh5m4-20">
          <mxGeometry relative="1" as="geometry">
            <mxPoint x="290" y="675.4736842105265" as="targetPoint" />
          </mxGeometry>
        </mxCell>
        <mxCell id="OdcNtF8pi_zYotDbh5m4-44" value="extend" style="edgeLabel;html=1;align=center;verticalAlign=middle;resizable=0;points=[];" vertex="1" connectable="0" parent="OdcNtF8pi_zYotDbh5m4-43">
          <mxGeometry x="0.1389" y="2" relative="1" as="geometry">
            <mxPoint as="offset" />
          </mxGeometry>
        </mxCell>
        <mxCell id="OdcNtF8pi_zYotDbh5m4-20" value="registrarDiagnóstico" style="ellipse;whiteSpace=wrap;html=1;fillColor=#d5e8d4;strokeColor=#82b366;" vertex="1" parent="1">
          <mxGeometry x="350" y="650" width="110" height="50" as="geometry" />
        </mxCell>
        <mxCell id="OdcNtF8pi_zYotDbh5m4-21" value="prescrever&lt;div&gt;Medicamento&lt;/div&gt;" style="ellipse;whiteSpace=wrap;html=1;fillColor=#d5e8d4;strokeColor=#82b366;" vertex="1" parent="1">
          <mxGeometry x="350" y="710" width="110" height="50" as="geometry" />
        </mxCell>
        <mxCell id="OdcNtF8pi_zYotDbh5m4-22" value="consultarHistórico&lt;div&gt;Paciente&lt;/div&gt;" style="ellipse;whiteSpace=wrap;html=1;fillColor=#d5e8d4;strokeColor=#82b366;" vertex="1" parent="1">
          <mxGeometry x="350" y="770" width="110" height="50" as="geometry" />
        </mxCell>
        <mxCell id="OdcNtF8pi_zYotDbh5m4-31" value="" style="endArrow=none;html=1;rounded=0;exitX=0;exitY=0.5;exitDx=0;exitDy=0;entryX=0.282;entryY=0.04;entryDx=0;entryDy=0;dashed=1;entryPerimeter=0;" edge="1" parent="1" source="OdcNtF8pi_zYotDbh5m4-18" target="OdcNtF8pi_zYotDbh5m4-7">
          <mxGeometry width="50" height="50" relative="1" as="geometry">
            <mxPoint x="470" y="490" as="sourcePoint" />
            <mxPoint x="520" y="440" as="targetPoint" />
            <Array as="points">
              <mxPoint x="310" y="615" />
              <mxPoint x="310" y="262" />
            </Array>
          </mxGeometry>
        </mxCell>
        <mxCell id="OdcNtF8pi_zYotDbh5m4-32" value="includ" style="edgeLabel;html=1;align=center;verticalAlign=middle;resizable=0;points=[];" vertex="1" connectable="0" parent="OdcNtF8pi_zYotDbh5m4-31">
          <mxGeometry x="-0.2156" y="-2" relative="1" as="geometry">
            <mxPoint as="offset" />
          </mxGeometry>
        </mxCell>
        <mxCell id="OdcNtF8pi_zYotDbh5m4-37" style="edgeStyle=orthogonalEdgeStyle;rounded=0;orthogonalLoop=1;jettySize=auto;html=1;exitX=0.5;exitY=0.5;exitDx=0;exitDy=0;exitPerimeter=0;entryX=1;entryY=0.5;entryDx=0;entryDy=0;" edge="1" parent="1" target="OdcNtF8pi_zYotDbh5m4-40" source="OdcNtF8pi_zYotDbh5m4-2">
          <mxGeometry relative="1" as="geometry">
            <mxPoint x="650" y="340" as="sourcePoint" />
          </mxGeometry>
        </mxCell>
        <mxCell id="OdcNtF8pi_zYotDbh5m4-38" style="edgeStyle=orthogonalEdgeStyle;rounded=0;orthogonalLoop=1;jettySize=auto;html=1;exitX=0.5;exitY=1;exitDx=0;exitDy=0;entryX=0.5;entryY=0;entryDx=0;entryDy=0;dashed=1;" edge="1" parent="1" source="OdcNtF8pi_zYotDbh5m4-40" target="OdcNtF8pi_zYotDbh5m4-7">
          <mxGeometry relative="1" as="geometry">
            <mxPoint x="405" y="265" as="targetPoint" />
          </mxGeometry>
        </mxCell>
        <mxCell id="OdcNtF8pi_zYotDbh5m4-39" value="includ" style="edgeLabel;html=1;align=center;verticalAlign=middle;resizable=0;points=[];" vertex="1" connectable="0" parent="OdcNtF8pi_zYotDbh5m4-38">
          <mxGeometry x="-0.28" relative="1" as="geometry">
            <mxPoint as="offset" />
          </mxGeometry>
        </mxCell>
        <mxCell id="OdcNtF8pi_zYotDbh5m4-40" value="login" style="ellipse;whiteSpace=wrap;html=1;fillColor=#e1d5e7;strokeColor=#9673a6;" vertex="1" parent="1">
          <mxGeometry x="350" y="165" width="110" height="50" as="geometry" />
        </mxCell>
        <mxCell id="OdcNtF8pi_zYotDbh5m4-45" style="edgeStyle=orthogonalEdgeStyle;rounded=0;orthogonalLoop=1;jettySize=auto;html=1;exitX=0;exitY=0.5;exitDx=0;exitDy=0;shape=link;" edge="1" parent="1" source="OdcNtF8pi_zYotDbh5m4-21">
          <mxGeometry relative="1" as="geometry">
            <mxPoint x="290" y="734.9536842105265" as="targetPoint" />
            <mxPoint x="350" y="734.48" as="sourcePoint" />
          </mxGeometry>
        </mxCell>
        <mxCell id="OdcNtF8pi_zYotDbh5m4-46" value="extend" style="edgeLabel;html=1;align=center;verticalAlign=middle;resizable=0;points=[];" vertex="1" connectable="0" parent="OdcNtF8pi_zYotDbh5m4-45">
          <mxGeometry x="0.1389" y="2" relative="1" as="geometry">
            <mxPoint as="offset" />
          </mxGeometry>
        </mxCell>
      </root>
    </mxGraphModel>
  </diagram>
</mxfile>
